<?xml version="1.0" standalone="no"?>
<!DOCTYPE svg PUBLIC "-//W3C//DTD SVG 20010904//EN"
 "http://www.w3.org/TR/2001/REC-SVG-20010904/DTD/svg10.dtd">
<svg version="1.0" xmlns="http://www.w3.org/2000/svg"
 width="800.000000pt" height="800.000000pt" viewBox="0 0 800.000000 800.000000"
 preserveAspectRatio="xMidYMid meet">

<g transform="translate(0.000000,800.000000) scale(0.100000,-0.100000)"
fill="#000000" stroke="none">
<path d="M3825 7533 c-1018 -43 -1984 -543 -2619 -1355 -830 -1061 -975 -2521
-371 -3730 260 -520 644 -967 1121 -1305 872 -618 1998 -803 3029 -496 457
136 905 378 1270 686 170 144 397 383 533 563 252 334 463 757 576 1155 149
519 175 1091 75 1617 -231 1217 -1077 2218 -2239 2650 -325 120 -655 189
-1020 212 -158 9 -196 10 -355 3z m604 -308 c540 -76 1051 -281 1479 -592 149
-109 209 -160 356 -303 529 -515 858 -1166 961 -1901 25 -178 31 -571 11 -759
-113 -1070 -732 -2003 -1673 -2523 -381 -210 -809 -341 -1262 -387 -133 -13
-469 -13 -602 0 -769 77 -1461 403 -1999 940 -538 538 -864 1232 -940 1999
-13 133 -13 470 0 602 46 453 176 878 387 1262 374 682 991 1214 1718 1485
230 86 530 158 750 181 55 6 116 13 135 15 85 10 571 -3 679 -19z"/>
<path d="M3764 7099 c-981 -75 -1867 -610 -2398 -1449 -417 -658 -569 -1486
-415 -2260 95 -476 313 -943 623 -1335 43 -55 151 -172 240 -260 254 -253 499
-428 821 -585 99 -49 239 -110 310 -135 713 -256 1502 -243 2204 36 570 227
1072 631 1423 1144 479 702 646 1573 463 2415 -53 241 -129 459 -245 695 -383
783 -1071 1366 -1906 1615 -353 105 -752 148 -1120 119z m436 -464 c92 -8 258
-51 352 -90 377 -159 662 -517 760 -956 20 -89 23 -131 23 -294 0 -253 -29
-386 -129 -601 -82 -175 -162 -278 -391 -504 -175 -173 -228 -240 -285 -362
-68 -145 -85 -229 -85 -413 0 -182 16 -258 81 -388 143 -282 454 -463 768
-444 166 9 298 69 422 192 110 110 164 236 164 385 0 182 -77 313 -228 387
-48 23 -70 28 -137 28 -71 0 -86 -4 -135 -31 -72 -41 -100 -82 -100 -147 l0
-49 23 16 c65 48 84 56 130 56 58 0 102 -17 149 -59 120 -105 97 -327 -46
-459 -113 -103 -247 -134 -421 -97 -100 21 -169 60 -250 140 -80 81 -136 170
-168 270 -32 102 -32 289 1 395 49 153 134 284 250 383 150 127 326 186 557
187 178 0 296 -26 440 -98 313 -155 511 -468 544 -855 36 -425 -174 -836 -554
-1086 -143 -95 -323 -158 -520 -182 -108 -14 -344 -6 -466 16 -317 55 -631
242 -823 489 -118 151 -173 267 -227 473 -117 443 -199 617 -373 788 -97 96
-206 162 -336 206 -81 27 -113 32 -231 36 -145 6 -216 -2 -325 -38 -211 -71
-378 -242 -464 -477 -61 -166 -50 -320 35 -487 66 -130 163 -225 267 -262 80
-27 276 -25 339 4 131 60 204 203 169 329 -15 51 -59 104 -88 104 -17 0 -20
-9 -25 -69 -8 -95 -36 -144 -102 -179 -41 -21 -177 -21 -227 0 -129 57 -208
221 -187 388 26 208 163 353 387 411 306 78 638 -73 784 -356 74 -144 83 -184
82 -375 0 -137 -4 -177 -21 -235 -50 -169 -111 -280 -212 -388 -215 -228 -534
-331 -889 -287 -333 42 -664 287 -835 617 -95 184 -137 360 -137 577 0 156 19
273 66 415 133 399 447 723 840 864 158 57 261 72 489 72 235 0 283 -7 512
-76 229 -69 334 -81 499 -58 309 43 577 231 704 493 48 100 68 181 76 312 19
296 -88 527 -308 660 -136 83 -311 121 -429 94 -98 -22 -230 -94 -293 -160
-84 -87 -106 -143 -105 -260 0 -104 12 -151 53 -205 32 -42 101 -84 150 -92
40 -6 126 21 126 40 0 7 -21 23 -47 37 -82 43 -112 133 -82 245 16 60 99 136
172 159 92 29 213 19 296 -23 153 -78 251 -247 251 -432 0 -139 -72 -321 -171
-432 -67 -75 -179 -149 -281 -183 -77 -26 -94 -29 -233 -29 -129 0 -160 4
-225 24 -548 171 -789 843 -494 1379 173 316 489 517 863 551 93 8 126 8 261
-4z"/>
<path d="M3830 6420 c-272 -60 -471 -215 -595 -465 -69 -137 -88 -230 -83
-390 4 -112 9 -142 35 -218 40 -114 83 -185 165 -271 110 -117 243 -182 393
-193 159 -11 283 26 376 114 71 66 104 117 135 209 45 133 24 249 -58 333 -43
44 -85 61 -152 61 -38 0 -61 -6 -77 -19 l-23 -18 46 -21 c99 -43 137 -168 84
-276 -30 -61 -64 -94 -140 -134 -45 -24 -62 -27 -146 -27 -87 0 -101 3 -162
33 -101 49 -170 118 -220 219 -41 82 -42 88 -46 201 -6 172 25 276 120 400
112 145 337 258 535 269 143 9 262 -21 425 -104 198 -101 341 -270 418 -493
52 -150 50 -453 -4 -625 -87 -274 -278 -492 -553 -629 -276 -138 -535 -161
-843 -76 -318 88 -339 92 -505 97 -246 8 -412 -24 -596 -117 -324 -161 -568
-483 -635 -837 -22 -117 -15 -352 15 -465 71 -275 272 -527 516 -650 28 -14
88 -38 135 -54 79 -26 96 -28 250 -28 187 -1 237 9 375 75 235 111 377 327
392 594 11 193 -37 335 -150 449 -97 96 -213 145 -344 146 -216 1 -363 -113
-363 -281 0 -85 44 -159 95 -159 12 0 15 14 15 68 0 88 27 136 95 175 45 25
57 27 131 24 66 -3 89 -8 126 -30 225 -131 237 -487 24 -684 -112 -104 -251
-149 -435 -140 -68 3 -129 12 -171 26 -234 75 -408 282 -482 574 -17 67 -20
101 -15 192 9 174 56 311 163 472 139 209 326 341 567 398 105 25 123 27 277
22 126 -4 185 -10 249 -27 200 -53 330 -128 477 -274 119 -119 186 -216 265
-380 61 -128 80 -188 153 -464 65 -248 136 -380 286 -531 211 -213 481 -325
816 -338 171 -7 274 5 399 44 329 104 589 372 681 703 15 52 19 99 18 235 -1
204 -14 268 -84 410 -82 169 -188 278 -345 356 -110 54 -169 69 -315 75 -223
11 -367 -40 -500 -175 -123 -125 -177 -259 -168 -420 7 -109 44 -197 119 -276
77 -82 128 -108 220 -113 120 -7 192 28 230 113 15 32 26 105 17 105 -2 0 -30
-14 -62 -30 -177 -90 -330 35 -313 256 7 91 39 156 108 218 205 184 500 166
712 -45 123 -122 177 -260 177 -455 0 -264 -141 -504 -383 -649 -133 -80 -244
-113 -407 -122 -272 -13 -540 91 -749 291 -189 182 -286 407 -298 692 -9 214
26 382 119 573 70 146 105 190 323 406 205 204 270 288 344 446 96 204 134
464 101 689 -67 464 -423 854 -862 944 -108 22 -327 20 -438 -4z"/>
</g>
</svg>
